<svg fill="none" height="55" viewBox="0 0 170 55" width="170" xmlns="http://www.w3.org/2000/svg"><path d="m1 11.3305v42.6695h168v-53h-146.4803" stroke="#42332b" stroke-width="2"/><path d="m46.88 28.544c0 1.7493-.2133 3.3493-.64 4.8-.4267 1.4293-1.0773 2.6667-1.952 3.712-.8533 1.0453-1.9413 1.856-3.264 2.432-1.3013.5547-2.8373.832-4.608.832s-3.3173-.2773-4.64-.832c-1.3013-.576-2.3893-1.3867-3.264-2.432-.8533-1.0453-1.4933-2.2933-1.92-3.744s-.64-3.0507-.64-4.8c0-2.3253.384-4.3627 1.152-6.112.7893-1.7707 1.9627-3.1467 3.52-4.128 1.5787-.9813 3.5413-1.472 5.888-1.472 2.304 0 4.224.48 5.76 1.44 1.536.9387 2.688 2.2827 3.456 4.032s1.152 3.84 1.152 6.272zm-17.888 0c0 1.856.2667 3.488.8 4.896s1.344 2.5067 2.432 3.296c1.1093.768 2.5173 1.152 4.224 1.152 1.728 0 3.136-.384 4.224-1.152 1.088-.7893 1.888-1.8773 2.4-3.264.5333-1.408.8-3.0507.8-4.928 0-2.944-.608-5.2267-1.824-6.848-1.216-1.6427-3.0507-2.464-5.504-2.464-1.728 0-3.1573.3947-4.288 1.184-1.1093.768-1.9307 1.856-2.464 3.264-.5333 1.3867-.8 3.008-.8 4.864zm33.4518 19.008v-17.056c0-1.4507-.32-2.5173-.96-3.2-.6187-.6827-1.4614-1.024-2.528-1.024-1.408 0-2.5067.5013-3.296 1.504-.7894.9813-1.184 2.4853-1.184 4.512v7.712h-2.848v-15.744h2.24l.352 2.784h.16c.2773-.576.64-1.0987 1.088-1.568.4693-.4693 1.0453-.8427 1.728-1.12.6826-.2773 1.4933-.416 2.432-.416 1.1733 0 2.176.224 3.008.672.8533.448 1.504 1.12 1.952 2.016.4693.8747.7039 1.984.7039 3.328v7.808h3.8721v2.24h-3.8721v7.552zm15.06-7.264c-1.6854 0-3.0294-.48-4.032-1.44-1.0027-.96-1.504-2.4-1.504-4.32v-10.272h2.848v9.728c0 1.344.3093 2.3467.928 3.008.64.64 1.4506.96 2.432.96 1.3226 0 2.3786-.4587 3.168-1.376.8106-.9173 1.216-2.3467 1.216-4.288v-8.032h2.848v9.728c0 .896.1386 1.6427.416 2.24.2986.576.704 1.0133 1.216 1.312.512.2773 1.088.416 1.728.416.8533 0 1.6-.2027 2.24-.608.6613-.4053 1.1733-1.024 1.536-1.856.384-.8533.576-1.92.576-3.2v-8.032h2.848v15.744h-2.208l-.384-2.56h-.16c-.256.512-.608.9813-1.056 1.408s-1.0027.7787-1.664 1.056c-.6614.256-1.4614.384-2.4.384-1.1734 0-2.1974-.2453-3.072-.736-.8747-.4907-1.504-1.2267-1.888-2.208h-.16c-.4054.8533-1.0987 1.5573-2.08 2.112-.9814.5547-2.112.832-3.392.832zm24.0612 7.264v-23.328h2.848v21.088h3.328v2.24zm21.973-17.696v10.144h-2.24l-.352-2.784h-.16c-.277.576-.661 1.0987-1.152 1.568-.469.4693-1.045.8427-1.728 1.12s-1.472.416-2.368.416c-1.152 0-2.155-.224-3.008-.672s-1.515-1.12-1.984-2.016c-.448-.896-.672-2.0053-.672-3.328v-18.624h2.848v18.08c0 1.4293.32 2.496.96 3.2.64.6827 1.483 1.024 2.528 1.024.896 0 1.675-.224 2.336-.672.683-.448 1.205-1.12 1.568-2.016.384-.896.576-2.016.576-3.36v-2.08zm-12.256-5.6h12.896v2.24h-12.896zm21.334-.896 2.592-.96v.704c-.726 1.1093-1.344 2.1333-1.856 3.072-.491.9387-.896 1.824-1.216 2.656-.299.8107-.523 1.6-.672 2.368-.15.7467-.224 1.504-.224 2.272 0 1.1093.16 1.9947.48 2.656s.778 1.1413 1.376 1.44c.618.2773 1.354.416 2.208.416.896 0 1.685-.224 2.368-.672.682-.448 1.216-1.12 1.6-2.016s.576-2.016.576-3.36v-7.68h2.848v15.744h-2.24l-.352-2.784h-.192c-.256.576-.63 1.0987-1.12 1.568-.47.4693-1.046.8427-1.728 1.12-.683.2773-1.472.416-2.368.416-2.006 0-3.574-.576-4.704-1.728-1.11-1.152-1.664-2.7947-1.664-4.928 0-.7253.064-1.4507.192-2.176.149-.7467.384-1.5253.704-2.336.341-.8107.778-1.6853 1.312-2.624.554-.96 1.248-2.016 2.08-3.168zm2.592-.96-2.592 1.312-1.888-1.088c-.726-.4267-1.28-.9067-1.664-1.44-.384-.5547-.576-1.1093-.576-1.664 0-.3413.053-.6827.16-1.024.106-.3627.256-.7147.448-1.056l.992-1.856 2.208 1.088-.704 1.184c-.15.2347-.256.4693-.32.704-.064.2133-.096.416-.096.608 0 .3627.117.704.352 1.024.234.2987.576.5653 1.024.8z" fill="#42332b"/></svg>