<svg fill="none" height="38" viewBox="0 0 105 38" width="105" xmlns="http://www.w3.org/2000/svg"><path d="m1 8.01695v28.98305h103v-36h-89.8064" stroke="#42332b" stroke-width="2"/><path d="m26.3 19.84c0 1.0933-.1333 2.0933-.4 3-.2667.8933-.6733 1.6667-1.22 2.32-.5333.6533-1.2133 1.16-2.04 1.52-.8133.3467-1.7733.52-2.88.52s-2.0733-.1733-2.9-.52c-.8133-.36-1.4933-.8667-2.04-1.52-.5333-.6533-.9333-1.4333-1.2-2.34s-.4-1.9067-.4-3c0-1.4533.24-2.7267.72-3.82.4933-1.1067 1.2267-1.9667 2.2-2.58.9867-.6133 2.2133-.92 3.68-.92 1.44 0 2.64.3 3.6.9.96.5867 1.68 1.4267 2.16 2.52s.72 2.4.72 3.92zm-11.18 0c0 1.16.1667 2.18.5 3.06s.84 1.5667 1.52 2.06c.6933.48 1.5733.72 2.64.72 1.08 0 1.96-.24 2.64-.72.68-.4933 1.18-1.1733 1.5-2.04.3333-.88.5-1.9067.5-3.08 0-1.84-.38-3.2667-1.14-4.28-.76-1.0267-1.9067-1.54-3.44-1.54-1.08 0-1.9733.2467-2.68.74-.6933.48-1.2067 1.16-1.54 2.04-.3333.8667-.5 1.88-.5 3.04zm20.9073 11.88v-10.66c0-.9067-.2-1.5733-.6-2-.3866-.4267-.9133-.64-1.58-.64-.88 0-1.5666.3133-2.06.94-.4933.6133-.74 1.5533-.74 2.82v4.82h-1.78v-9.84h1.4l.22 1.74h.1c.1734-.36.4-.6867.68-.98.2934-.2933.6534-.5267 1.08-.7.4267-.1733.9334-.26 1.52-.26.7334 0 1.36.14 1.88.42.5334.28.94.7 1.22 1.26.2934.5467.44 1.24.44 2.08v4.88h2.42v1.4h-2.42v4.72zm9.4125-4.54c-1.0533 0-1.8933-.3-2.52-.9-.6266-.6-.94-1.5-.94-2.7v-6.42h1.78v6.08c0 .84.1934 1.4667.58 1.88.4.4.9067.6 1.52.6.8267 0 1.4867-.2867 1.98-.86.5067-.5733.76-1.4667.76-2.68v-5.02h1.78v6.08c0 .56.0867 1.0267.26 1.4.1867.36.44.6333.76.82.32.1733.68.26 1.08.26.5334 0 1-.1267 1.4-.38.4134-.2533.7334-.64.96-1.16.24-.5333.36-1.2.36-2v-5.02h1.78v9.84h-1.38l-.24-1.6h-.1c-.16.32-.38.6133-.66.88s-.6266.4867-1.04.66c-.4133.16-.9133.24-1.5.24-.7333 0-1.3733-.1533-1.92-.46-.5466-.3067-.94-.7667-1.18-1.38h-.1c-.2533.5333-.6866.9733-1.3 1.32-.6133.3467-1.32.52-2.12.52zm15.0385 4.54v-14.58h1.78v13.18h2.08v1.4zm13.733-11.06v6.34h-1.4l-.22-1.74h-.1c-.1734.36-.4134.6867-.72.98-.2934.2933-.6534.5267-1.08.7-.4267.1733-.92.26-1.48.26-.72 0-1.3467-.14-1.88-.42-.5334-.28-.9467-.7-1.24-1.26-.28-.56-.42-1.2533-.42-2.08v-11.64h1.78v11.3c0 .8933.2 1.56.6 2 .4.4267.9266.64 1.58.64.56 0 1.0466-.14 1.46-.42.4266-.28.7533-.7.98-1.26.24-.56.36-1.26.36-2.1v-1.3zm-7.66-3.5h8.06v1.4h-8.06zm13.3335-.56 1.62-.6v.44c-.4533.6933-.84 1.3333-1.16 1.92-.3066.5867-.56 1.14-.76 1.66-.1866.5067-.3266 1-.42 1.48-.0933.4667-.14.94-.14 1.42 0 .6933.1 1.2467.3 1.66s.4867.7133.86.9c.3867.1733.8467.26 1.38.26.56 0 1.0534-.14 1.48-.42.4267-.28.76-.7 1-1.26s.36-1.26.36-2.1v-4.8h1.78v9.84h-1.4l-.22-1.74h-.12c-.16.36-.3933.6867-.7.98-.2933.2933-.6533.5267-1.08.7-.4266.1733-.92.26-1.48.26-1.2533 0-2.2333-.36-2.94-1.08-.6933-.72-1.04-1.7467-1.04-3.08 0-.4533.04-.9067.12-1.36.0934-.4667.24-.9533.44-1.46.2134-.5067.4867-1.0533.82-1.64.3467-.6.78-1.26 1.3-1.98zm1.62-.6-1.62.82-1.18-.68c-.4533-.2667-.8-.5667-1.04-.9-.24-.3467-.36-.6933-.36-1.04 0-.2133.0334-.4267.1-.64.0667-.2267.16-.4467.28-.66l.62-1.16 1.38.68-.44.74c-.0933.1467-.16.2933-.2.44-.04.1333-.06.26-.06.38 0 .2267.0734.44.22.64.1467.1867.36.3533.64.5z" fill="#42332b"/></svg>